<svg width="104" height="28" viewBox="0 0 104 28" fill="none" xmlns="http://www.w3.org/2000/svg">
<path d="M0.333097 27V7.36364H6.2777V10.9688H6.49503C6.90412 9.77557 7.59446 8.83381 8.56605 8.14347C9.53764 7.45312 10.6967 7.10795 12.0433 7.10795C13.407 7.10795 14.5746 7.45739 15.5462 8.15625C16.5178 8.85511 17.1357 9.79261 17.3999 10.9688H17.6044C17.9709 9.80114 18.6868 8.8679 19.7521 8.16903C20.8175 7.46165 22.0746 7.10795 23.5234 7.10795C25.3814 7.10795 26.8899 7.70455 28.049 8.89773C29.2081 10.0824 29.7876 11.7102 29.7876 13.7812V27H23.5362V15.2131C23.5362 14.233 23.2848 13.4872 22.782 12.9759C22.2791 12.456 21.6271 12.196 20.826 12.196C19.9652 12.196 19.2876 12.4773 18.7933 13.0398C18.3075 13.5937 18.0646 14.3395 18.0646 15.277V27H12.0561V15.1491C12.0561 14.2372 11.8089 13.517 11.3146 12.9886C10.8203 12.4602 10.1683 12.196 9.35866 12.196C8.81321 12.196 8.33168 12.3281 7.91406 12.5923C7.49645 12.848 7.16832 13.2145 6.92969 13.6918C6.69957 14.169 6.58452 14.7315 6.58452 15.3793V27H0.333097ZM42.8402 27.3707C40.7862 27.3707 39.0135 26.9659 37.522 26.1562C36.0391 25.3381 34.897 24.1747 34.0959 22.6662C33.3033 21.1491 32.907 19.3466 32.907 17.2585C32.907 15.2301 33.3075 13.4574 34.1087 11.9403C34.9098 10.4148 36.0391 9.23011 37.4964 8.38636C38.9538 7.53409 40.6712 7.10795 42.6484 7.10795C44.0462 7.10795 45.3246 7.32528 46.4837 7.75994C47.6428 8.1946 48.6442 8.83807 49.4879 9.69034C50.3317 10.5426 50.9879 11.5952 51.4567 12.848C51.9254 14.0923 52.1598 15.5199 52.1598 17.1307V18.6903H35.093V15.0597H46.343C46.3345 14.3949 46.1768 13.8026 45.87 13.2827C45.5632 12.7628 45.1413 12.358 44.6044 12.0682C44.076 11.7699 43.4666 11.6207 42.7763 11.6207C42.0774 11.6207 41.451 11.7784 40.897 12.0938C40.343 12.4006 39.9041 12.8224 39.5803 13.3594C39.2564 13.8878 39.0859 14.4886 39.0689 15.1619V18.8565C39.0689 19.6577 39.2266 20.3608 39.5419 20.9659C39.8572 21.5625 40.3047 22.027 40.8842 22.3594C41.4638 22.6918 42.1541 22.858 42.9553 22.858C43.5092 22.858 44.0121 22.7812 44.4638 22.6278C44.9155 22.4744 45.3033 22.2486 45.6271 21.9503C45.951 21.652 46.1939 21.2855 46.3558 20.8509L52.0959 21.017C51.8572 22.304 51.3331 23.4247 50.5234 24.3793C49.7223 25.3253 48.6697 26.0625 47.3658 26.5909C46.0618 27.1108 44.5533 27.3707 42.8402 27.3707ZM60.8881 27.3324C59.6353 27.3324 58.5231 27.1236 57.5515 26.706C56.5884 26.2798 55.8256 25.6406 55.2631 24.7884C54.7092 23.9276 54.4322 22.8494 54.4322 21.554C54.4322 20.4631 54.6239 19.5426 55.0075 18.7926C55.391 18.0426 55.9194 17.4332 56.5927 16.9645C57.266 16.4957 58.0415 16.142 58.9194 15.9034C59.7972 15.6562 60.7347 15.4901 61.7319 15.4048C62.8484 15.3026 63.7475 15.196 64.4293 15.0852C65.1112 14.9659 65.6055 14.7997 65.9123 14.5866C66.2276 14.3651 66.3853 14.054 66.3853 13.6534V13.5895C66.3853 12.9332 66.1594 12.4261 65.7077 12.0682C65.256 11.7102 64.6467 11.5312 63.8796 11.5312C63.0529 11.5312 62.3881 11.7102 61.8853 12.0682C61.3825 12.4261 61.0629 12.9205 60.9265 13.5511L55.1609 13.3466C55.3313 12.1534 55.7702 11.0881 56.4776 10.1506C57.1935 9.20455 58.1737 8.46307 59.418 7.92614C60.6708 7.38068 62.1751 7.10795 63.9308 7.10795C65.1836 7.10795 66.3384 7.2571 67.3952 7.5554C68.4521 7.84517 69.3725 8.27131 70.1566 8.83381C70.9407 9.38778 71.5458 10.0696 71.9719 10.8793C72.4066 11.6889 72.6239 12.6136 72.6239 13.6534V27H66.7433V24.2642H66.5898C66.2404 24.929 65.793 25.4915 65.2475 25.9517C64.7106 26.4119 64.0756 26.7571 63.3427 26.9872C62.6183 27.2173 61.8001 27.3324 60.8881 27.3324ZM62.8185 23.2415C63.4918 23.2415 64.0969 23.1051 64.6339 22.8324C65.1793 22.5597 65.614 22.1847 65.9379 21.7074C66.2617 21.2216 66.4237 20.6591 66.4237 20.0199V18.1534C66.2447 18.2472 66.0273 18.3324 65.7717 18.4091C65.5245 18.4858 65.2518 18.5582 64.9535 18.6264C64.6552 18.6946 64.3484 18.7543 64.033 18.8054C63.7177 18.8565 63.4151 18.9034 63.1254 18.946C62.5373 19.0398 62.0344 19.1847 61.6168 19.3807C61.2077 19.5767 60.8924 19.8324 60.6708 20.1477C60.4577 20.4545 60.3512 20.821 60.3512 21.2472C60.3512 21.8949 60.5813 22.3892 61.0415 22.7301C61.5103 23.071 62.1026 23.2415 62.8185 23.2415ZM82.6978 0.818181V27H76.4464V0.818181H82.6978ZM86.728 27V23.4332L95.8303 12.3494V12.2216H87.0476V7.36364H103.283V11.2756L94.8459 22.0142V22.142H103.59V27H86.728Z" fill="#E63462"/>
</svg>
